<?xml version="1.0" standalone="no"?><!DOCTYPE svg PUBLIC "-//W3C//DTD SVG 1.1//EN"
        "http://www.w3.org/Graphics/SVG/1.1/DTD/svg11.dtd">
<svg t="1689910871489" class="icon" viewBox="0 0 1024 1024" version="1.1" xmlns="http://www.w3.org/2000/svg"
     p-id="2044">
    <path d="M757.6 879.6c-15.7 0-28.4-12.8-28.4-28.4v-86.5h-86.5c-15.7 0-28.4-12.8-28.4-28.4 0-15.7 12.8-28.4 28.4-28.4h86.5v-86.5c0-15.7 12.8-28.4 28.4-28.4 15.7 0 28.4 12.8 28.4 28.4v86.5h86.5c15.7 0 28.4 12.8 28.4 28.4 0 15.7-12.8 28.4-28.4 28.4H786v86.5c0 15.6-12.7 28.4-28.4 28.4z"
          p-id="2045"></path>
    <path d="M324.6 880.1c-111.2 0-201.6-90.4-201.6-201.6V143.9h576.4c111.2 0 201.6 90.4 201.6 201.6v198.6h-0.2v0.2c-1.7 14.2-13.9 24.9-28.2 24.9-14.3 0-26.4-10.7-28.2-24.9v-0.2h-0.2l-0.1-2.3V438.5H179.9v240c0 38.7 15.1 75 42.4 102.4 27.3 27.3 63.7 42.4 102.4 42.4h248c15.7 0 28.4 12.8 28.4 28.4 0 15.7-12.8 28.4-28.4 28.4H324.6zM179.9 381.7h664.3v-36.2c0-38.7-15.1-75-42.4-102.4-27.3-27.3-63.7-42.4-102.4-42.4H179.9v181z"
          p-id="2046"></path>
</svg>
