<?xml version="1.0" encoding="UTF-8"?>
<svg width="14px" height="14px" viewBox="0 0 14 14" version="1.1" xmlns="http://www.w3.org/2000/svg" xmlns:xlink="http://www.w3.org/1999/xlink">
    <title>患者</title>
    <g id="页面-1" stroke="none" stroke-width="1" fill="none" fill-rule="evenodd" opacity="0.8">
        <g id="切图" transform="translate(-70.000000, -123.000000)" fill="#FFFFFF" fill-rule="nonzero">
            <g id="患者管理" transform="translate(70.000000, 123.000000)">
                <g id="Icon-shenqinghuizhen" transform="translate(0.000000, 1.000000)">
                    <path d="M11.4195373,12.9911709 C11.137018,12.9911709 10.9084833,12.7651453 10.9084833,12.4896767 L10.9084833,10.9622385 L9.35192802,10.9622385 C9.06940874,10.9622385 8.84087404,10.736213 8.84087404,10.4607444 C8.84087404,10.1835099 9.07120823,9.9592502 9.35192802,9.9592502 L10.9084833,9.9592502 L10.9084833,8.43181201 C10.9084833,8.15457756 11.1388175,7.93031785 11.4195373,7.93031785 C11.7020566,7.93031785 11.9305913,8.15634338 11.9305913,8.43181201 L11.9305913,9.9592502 L13.4871465,9.9592502 C13.7696658,9.9592502 13.9982005,10.1852757 13.9982005,10.4607444 C13.9982005,10.7379788 13.7678663,10.9622385 13.4871465,10.9622385 L11.9305913,10.9622385 L11.9305913,12.4896767 C11.9305913,12.7651453 11.7020566,12.9911709 11.4195373,12.9911709 Z" id="路径"></path>
                    <path d="M3.6277635,12 C1.62673522,12 0,10.4036946 0,8.4400978 L0,0 L10.3722365,0 C12.3732648,0 14,1.59630535 14,3.5599022 L14,7.06682967 C13.9658098,7.32110839 13.7462725,7.51005162 13.488946,7.51005162 C13.2316195,7.51005162 13.0138817,7.32110839 12.981491,7.07036131 L12.9760925,7.0262157 L12.9760925,5.20211899 L1.02390746,5.20211899 L1.02390746,8.4400978 C1.02390746,9.12347188 1.29562982,9.76446618 1.78688946,10.2483021 C2.2781491,10.7303722 2.93316195,10.9970117 3.62956298,10.9970117 L8.09228792,10.9970117 C8.3748072,10.9970117 8.6033419,11.2230372 8.6033419,11.4985058 C8.6033419,11.7757403 8.37300771,12 8.09228792,12 L3.6277635,12 Z M1.02390746,4.19913067 L12.977892,4.19913067 L12.977892,3.5599022 C12.977892,2.87652812 12.7061697,2.23553382 12.21491,1.75169791 C11.7236504,1.26962782 11.0686375,1.00298832 10.3722365,1.00298832 L1.02390746,1.00298832 L1.02390746,4.19913067 Z" id="形状"></path>
                </g>
            </g>
        </g>
    </g>
</svg>