<?xml version="1.0" encoding="UTF-8"?>
<svg width="64px" height="64px" viewBox="0 0 64 64" version="1.1" xmlns="http://www.w3.org/2000/svg" xmlns:xlink="http://www.w3.org/1999/xlink">
    <title>头像</title>
    <g id="页面-1" stroke="none" stroke-width="1" fill="none" fill-rule="evenodd">
        <g id="会诊报告" transform="translate(-275.000000, -168.000000)">
            <g id="头像" transform="translate(275.000000, 168.000000)">
                <circle id="椭圆形" fill="#FFFFFF" cx="32" cy="32" r="32"></circle>
                <path d="M32,45.9921714 C25.3727273,45.9921714 20,46.3448464 20,42.3159586 C20,39.0001813 22.1087879,36.1534877 25.6960606,34.2797401 C27.4609091,33.3576689 29.8145454,35.0103838 32,35.0103838 C34.4918182,35.0103838 37.05,33.4476341 38.9681818,34.5447494 C42.1515151,36.36561 44,38.8903836 44,42.3159586 C44,46.3448464 38.6272727,45.9921714 32,45.9921714 Z M31.5,33 C27.357874,33 24,29.642126 24,25.5 C24,21.357874 27.357874,18 31.5,18 C35.642126,18 39,21.357874 39,25.5 C39,29.642126 35.642126,33 31.5,33 Z" id="形状" fill="#4949C9" fill-rule="nonzero"></path>
            </g>
        </g>
    </g>
</svg>