<?xml version="1.0" standalone="no"?><!DOCTYPE svg PUBLIC "-//W3C//DTD SVG 1.1//EN"
        "http://www.w3.org/Graphics/SVG/1.1/DTD/svg11.dtd">
<svg t="1689910840714" class="icon" viewBox="0 0 1024 1024" version="1.1" xmlns="http://www.w3.org/2000/svg"
     p-id="1462">
    <path d="M929.341618 451.832665 589.514933 98.041944c-21.10876-21.951965-49.346895-34.05563-79.586616-34.05563-30.241768 0-58.477856 12.103666-79.611176 34.05563L90.491479 451.832665c-35.068703 36.517705-30.54876 68.086701-24.752754 81.263815 4.133134 9.367345 18.081821 35.078936 58.262962 35.078936l49.812499 0 0 272.164656c0 61.772902 44.360324 119.966279 107.416452 119.966279l57.155744 0 87.513146 0 0-63.960731L425.899528 672.27738c0-30.886451-4.690836-48.097438 26.872021-48.097438l57.156768 0 57.156768 0c31.53932 0 26.872021 17.210987 26.872021 48.097438l0 224.068242 0 63.960731 87.488587 0 57.158814 0c63.078641 0 107.436918-58.193377 107.436918-119.966279L846.041424 568.175417l49.802266 0c40.192398 0 54.129828-25.711592 58.273195-35.078936C959.900611 519.919367 964.410322 488.349347 929.341618 451.832665zM895.84369 512.146333l-42.878576 0-28.602432 0-34.340109 0 0 328.193741c0 30.862915-19.902282 63.938218-51.418067 63.938218l-88.629573 0L649.974933 672.27738c0-61.796438-19.811208-104.101963-82.889849-104.101963L509.927293 568.175417l-57.156768 0c-63.078641 0-82.889849 42.306548-82.889849 104.101963L369.880677 904.278291l-88.650039 0c-31.516808 0-51.396577-33.075303-51.396577-63.938218L229.834061 512.146333l-34.363645 0-28.577872 0-42.890856 0c-0.991584 0-1.89107-3.851725-2.710738-3.920286 1.947352-3.373841 5.282307-11.966543 10.827603-17.733896l339.870688-353.541035c10.157337-10.599406 24.481577-17.072841 38.372959-16.935718 13.890358-0.1361 27.347858 6.336312 37.504172 16.935718l339.848175 353.541035c5.557576 5.76633 8.902764 14.360056 10.839883 17.733896C897.735783 508.294608 896.821971 512.146333 895.84369 512.146333z"
          p-id="1463"></path>
</svg>
