<?xml version="1.0" encoding="UTF-8"?>
<svg width="14px" height="14px" viewBox="0 0 14 14" version="1.1" xmlns="http://www.w3.org/2000/svg" xmlns:xlink="http://www.w3.org/1999/xlink">
    <title>首页</title>
    <g id="页面-1" stroke="none" stroke-width="1" fill="none" fill-rule="evenodd" opacity="0.8">
        <g id="切图" transform="translate(-70.000000, -72.000000)">
            <g id="首页" transform="translate(70.000000, 72.000000)">
                <g transform="translate(1.000000, 0.000000)">
                    <path d="M1.23666667,3.90870057 L1.23757936,11.6750622 C1.23757936,12.1094699 1.54399366,12.4675019 1.93874966,12.516433 L2.03131613,12.5221319 L3.67966667,12.5217006 L3.68045838,10.1471201 C3.68045838,8.86060492 4.7251273,7.81767833 6.01379172,7.81767833 C7.24876178,7.81767833 8.2596457,8.77550501 8.34174199,9.98763219 L8.34712505,10.1471201 L8.34666667,12.5217006 L9.96868387,12.5221319 C10.3757405,12.5221319 10.7112303,12.1951289 10.7570806,11.7738484 L10.7624206,11.6750622 L10.7616667,3.90870057 L11.8326667,3.90870057 L11.8333333,11.8652193 C11.8333333,12.8475426 11.0871412,13.643873 10.1666667,13.643873 L7.16666667,13.643873 L7.16666667,12.5217006 L7.16866667,12.5217006 L7.16945838,12.4756783 L7.17958582,12.4765066 L7.18045838,10.1471201 C7.18045838,9.59247451 6.79212033,9.12837888 6.27208008,9.01104102 L6.1498497,8.99023513 L6.01379172,8.9823992 C5.41241499,8.9823992 4.91731186,9.43665167 4.85397089,10.0202109 L4.84712505,10.1471201 L4.84545838,12.4526783 L4.83691915,12.4532122 L4.83645838,13.6406783 L4.83266667,13.6397006 L4.83333333,13.643873 L1.83333333,13.643873 C0.91285875,13.643873 0.166666667,12.8475426 0.166666667,11.8652193 L0.166666667,3.90870057 L1.23666667,3.90870057 Z" id="形状结合" fill="#FFFFFF" fill-rule="nonzero"></path>
                    <path d="M0.0253729186,4.17303734 L4.89623595,0.932396329 C5.58150689,0.476477718 6.47352745,0.476628189 7.15864454,0.932777964 L12.0253729,4.17303734 L12.0253729,4.17303734" id="路径-2" stroke="#FFFFFF" stroke-width="1.16666667" stroke-linecap="round" stroke-linejoin="round"></path>
                </g>
            </g>
        </g>
    </g>
</svg>