<?xml version="1.0" encoding="UTF-8"?>
<svg width="14px" height="14px" viewBox="0 0 14 14" version="1.1" xmlns="http://www.w3.org/2000/svg" xmlns:xlink="http://www.w3.org/1999/xlink">
    <title>设置</title>
    <g id="页面-1" stroke="none" stroke-width="1" fill="none" fill-rule="evenodd" opacity="0.8">
        <g id="切图" transform="translate(-70.000000, -221.000000)" stroke="#FFFFFF">
            <g id="编组-7" transform="translate(70.000000, 220.752214)">
                <circle id="椭圆形" cx="7" cy="7.0067615" r="2"></circle>
                <path d="M7,0.757623889 C7.18461374,0.757623889 7.36922748,0.807128894 7.53315618,0.906138905 L7.53315618,0.906138905 L12.0019062,3.60518417 C12.3110586,3.79190673 12.5,4.12675361 12.5,4.48791915 L12.5,4.48791915 L12.5,10.0076526 C12.5,10.3688181 12.3110586,10.703665 12.0019062,10.8903876 L12.0019062,10.8903876 L7.53315618,13.5894329 C7.36922748,13.6884429 7.18461374,13.7379479 7,13.7379479 C6.81538626,13.7379479 6.63077252,13.6884429 6.46684382,13.5894329 L6.46684382,13.5894329 L1.99809382,10.8903876 C1.68894138,10.703665 1.5,10.3688181 1.5,10.0076526 L1.5,10.0076526 L1.5,4.48791915 C1.5,4.12675361 1.68894138,3.79190673 1.99809382,3.60518417 L1.99809382,3.60518417 L6.46684382,0.906138905 C6.63077252,0.807128894 6.81538626,0.757623889 7,0.757623889 Z" id="多边形"></path>
            </g>
        </g>
    </g>
</svg>